<svg width="237" height="50" viewBox="0 0 237 50" fill="none" xmlns="http://www.w3.org/2000/svg">
<g id="Group">
<path id="Vector" fill-rule="evenodd" clip-rule="evenodd" d="M17.5311 27.8592L16.3015 24.8623C15.9865 23.6115 15.7164 22.6449 15.3918 21.4107C14.738 18.9255 10.9665 1.86848 9.48583 1.34729L0.649323 1.34966L0.654061 48.6025L7.2921 48.593L7.42477 15.1232L16.5692 48.5574L24.1454 48.5764L24.2189 1.38283L17.6424 1.35203L17.5287 27.8544L17.5311 27.8592Z" fill="#3C3B3B"/>
<path id="Vector_2" fill-rule="evenodd" clip-rule="evenodd" d="M174.319 10.3876L177.69 33.6231L170.763 33.6136L174.319 10.3876ZM161.602 48.5717C163.108 48.5931 164.416 48.6096 165.747 48.6286C168.095 48.6618 168.259 49.0835 168.766 47.3777C169.209 45.8781 169.493 42.0758 169.827 40.1593L178.692 40.0716L180.09 48.6002L187.502 48.5931L180.111 1.35684L169.085 1.34973L161.604 48.5717H161.602Z" fill="#3C3B3B"/>
<path id="Vector_3" fill-rule="evenodd" clip-rule="evenodd" d="M119.561 8.2223C127.177 8.23177 126.417 9.05383 126.424 16.4026C126.431 23.4789 126.819 24.0143 119.483 24.0451L119.558 8.2223H119.561ZM111.921 2.87538L111.925 48.6049L119.352 48.5978L119.483 30.9011C134.403 31.0693 133.964 25.0993 133.964 14.6566C133.964 -0.720816 125.389 1.33077 111.923 1.34972L111.918 2.87538H111.921Z" fill="#3C3B3B"/>
<path id="Vector_4" fill-rule="evenodd" clip-rule="evenodd" d="M67.3022 31.0266L60.2022 31.074C60.2022 33.3885 60.4485 37.9039 59.9392 39.8181C59.3303 42.1161 56.4022 43.2556 54.0142 41.6968C51.6381 40.1427 52.5881 29.1811 52.5881 25.566C52.5881 22.1593 51.83 10.9964 53.5167 8.93771C55.0424 7.07802 58.2572 7.43337 59.4417 9.21015C60.5599 10.8874 60.1998 14.9645 60.1998 17.2436L67.2998 17.3833C67.2998 12.3776 67.3543 7.10408 64.6204 4.03144C62.3627 1.4942 57.3664 0.127264 52.7634 1.19807C42.939 3.48419 45.0545 15.3033 45.0545 25.566C45.0545 35.4022 43.0408 47.0697 53.3201 48.946C58.4467 49.8818 62.6683 48.4438 65.0871 45.3853C67.8376 41.9076 67.3045 36.1627 67.3045 31.0266H67.3022Z" fill="#3C3B3B"/>
<path id="Vector_5" fill-rule="evenodd" clip-rule="evenodd" d="M215.782 48.6025L235.947 48.593L235.982 41.8128L223.317 41.8081L223.315 28.0961L233.317 28.0842L233.474 21.1974L223.317 21.1927L223.393 8.22223H236.063L236.07 1.34729L215.779 1.35677L215.782 48.6025Z" fill="#3C3B3B"/>
<path id="Vector_6" fill-rule="evenodd" clip-rule="evenodd" d="M73.4024 48.4367L93.6056 48.6025L93.698 41.8081L80.9526 41.801L80.9549 28.089L90.9878 28.0867L91.1157 21.1928L80.9478 21.2046L80.9762 8.22703L93.7075 8.22466L93.653 1.32129L73.4996 1.34735L73.4024 48.4367Z" fill="#3C3B3B"/>
<path id="Vector_7" fill-rule="evenodd" clip-rule="evenodd" d="M187.95 8.22697L195.638 8.24356L195.713 48.6048L203.055 48.574L203.145 8.22697L210.863 8.2246L210.871 1.35203L187.945 1.34729L187.95 8.22697Z" fill="#3C3B3B"/>
<path id="Vector_8" fill-rule="evenodd" clip-rule="evenodd" d="M139.084 48.5977L158.631 48.593L158.716 41.801L146.618 41.7868V1.35913L139.072 1.34729L139.084 48.5977Z" fill="#3C3B3B"/>
<path id="Vector_9" fill-rule="evenodd" clip-rule="evenodd" d="M31.2004 48.6025L38.6273 48.593L38.7576 46.9512L38.734 45.2029V42.5851V1.35203L34.7966 1.34729L31.1957 1.35677L31.2004 48.6025Z" fill="#3C3B3B"/>
</g>
</svg>
