<svg width="212" height="101" viewBox="0 0 212 101" fill="none" xmlns="http://www.w3.org/2000/svg">
<g clip-path="url(#clip0_0_739)">
<path fill-rule="evenodd" clip-rule="evenodd" d="M76.5203 93.915C75.442 88.6119 82.3062 87.8769 82.9607 92.2653C83.642 96.8442 77.3116 97.8044 76.5203 93.915ZM117.008 96.3264C115.562 95.3393 116.088 95.5673 115.726 93.9257L113.441 93.9552L112.55 96.2969C111.887 95.2669 112.309 97.4262 111.987 94.8297C111.955 94.5695 111.989 93.3705 111.992 93.0271C112.003 91.7637 111.995 90.7766 112.132 89.5105L116.743 89.7385C118.258 93.0915 116.053 90.9268 116.992 94.3978C117.545 96.4418 117.319 95.7229 117.014 96.3264H117.008ZM92.3436 96.3747C89.8759 95.2186 92.8104 93.9069 88.9182 93.9043C88.8565 94.0008 88.7895 94.0491 88.768 94.2154L87.8802 96.364C86.7884 95.2401 87.0835 91.4874 87.3893 89.827C89.2187 89.0572 90.8522 89.3254 92.3624 90.4413C92.7514 93.1103 91.8233 92.4424 91.9896 93.6494C92.2122 95.275 93.2342 95.1328 92.341 96.3747H92.3436ZM72.1426 93.5824L69.302 94.0223C68.9399 94.9665 69.4602 93.8292 69.0954 94.8887L68.0976 95.6237L68.0949 89.5856C74.3744 89.0089 72.2875 90.9483 72.1399 93.5797L72.1426 93.5824ZM127.376 96.0904L127.408 89.819C129.1 89.4864 131.979 88.5529 132.134 91.2058C132.26 93.3651 131.689 90.9617 132.099 92.7508C132.252 93.4187 133.395 94.8324 131.914 95.9C130.726 96.7556 128.671 96.3908 127.378 96.0904H127.376ZM137.654 91.238C138.43 92.8152 137.874 91.8442 139.76 92.5309C140.809 92.9145 141.603 93.2444 141.375 94.6875C141.083 96.5357 137.963 97.3887 136.442 95.2508C137.933 94.4273 137.751 95.7739 140.259 94.9745C139.747 93.4644 140.932 94.2422 138.843 93.4322C137.66 92.9735 137.925 93.3302 136.705 92.5711C136.445 90.7873 136.496 89.8485 138.041 89.4998C139.792 89.1028 140.999 89.422 140.959 91.0851C139.425 90.6935 139.065 90.0148 137.652 91.2407L137.654 91.238ZM100.179 92.5765C102.317 95.6934 102.749 95.1569 101.713 96.3667C99.1247 94.2396 100.729 94.422 98.6767 93.4375C97.8533 95.0952 98.6633 95.1891 97.5045 96.3667C96.7454 95.5244 96.9386 94.7841 96.9386 93.0244C96.9386 91.5357 96.7159 90.672 97.3892 89.5588C98.2529 90.0416 97.813 89.4005 98.1242 90.4333C98.1725 90.5969 98.269 91.9756 98.3414 92.4209C99.4573 91.3345 100.273 89.7251 102.18 89.5695C101.906 91.305 101.088 91.1387 100.176 92.5765H100.179ZM55.9169 87.1098L55.8928 99.4595C56.955 101.233 58.6315 100.742 61.2736 100.723L145.095 100.718C151.619 100.718 155.455 101.774 156.157 98.5957L156.16 87.8984C155.455 85.3662 154.336 85.731 151.348 85.7606L60.8257 85.7659C58.1889 85.7445 56.9335 85.3501 55.9196 87.1152L55.9169 87.1098Z" fill="#3C3B3B"/>
<path fill-rule="evenodd" clip-rule="evenodd" d="M55.8981 99.4595L55.9223 87.1098C54.9673 88.4188 55.2758 90.3072 55.3 92.1929C46.6037 92.2546 37.8806 92.1902 29.1789 92.1902C-1.14807 92.1902 2.45973 94.4998 2.45973 83.215V36.8473C2.45973 33.1644 1.53967 21.3351 3.29663 19.4494C5.44522 17.9527 48.1139 18.8486 54.5891 18.8486H196.814C211.833 18.8486 209.464 15.1415 209.464 37.2926C209.464 46.2062 210.009 89.1296 208.971 91.7852C204.939 93.062 164.615 92.1634 156.63 92.2037C156.592 90.6613 156.898 88.8614 156.16 87.8984L156.157 98.5958C156.892 97.6408 156.589 95.9188 156.624 94.3871L201.718 94.3952C207.15 94.3979 211.476 95.4815 211.584 89.4864C211.935 69.7119 211.559 49.535 211.559 29.7149C211.559 25.0422 212.734 18.2423 209.086 16.995C206.315 16.0482 34.9997 16.6517 15.7992 16.6517C-0.745717 16.6517 0.367471 14.2912 0.367471 30.6081C0.367471 40.5651 0.367471 50.5221 0.367471 60.4791C0.367471 96.1709 -3.12231 94.3952 11.3411 94.3952L55.2731 94.3871C55.2731 95.1677 55.1953 96.3372 55.2409 97.0588L55.8928 99.4595H55.8981Z" fill="#3C3B3B"/>
<path fill-rule="evenodd" clip-rule="evenodd" d="M80.2005 38.3656C87.2847 37.9203 87.4832 38.9423 87.4805 45.7743C87.4751 52.0001 86.6946 53.3601 80.1147 52.7888L80.2005 38.3656ZM90.4419 55.903C93.4139 53.6847 94.7498 52.2684 95.0985 47.5474C96.4477 29.3823 88.8002 31.1822 72.4109 31.2787L72.5235 79.5455L80.1013 79.5509L80.1201 60.0553C91.8742 58.7007 85.3185 68.9984 88.2074 79.5214L95.9273 79.5267C93.4917 67.2951 98.3495 61.3643 90.4419 55.9003V55.903Z" fill="#3C3B3B"/>
<path fill-rule="evenodd" clip-rule="evenodd" d="M50.7319 70.2859C50.2464 68.2339 49.6643 41.3752 51.44 39.0523C53.2506 36.681 57.183 37.4616 57.9824 40.5651C58.4706 42.4589 59.0258 69.3283 57.3815 71.7317C55.7479 74.119 51.4695 73.4163 50.7319 70.2859ZM52.0194 30.9327C39.9782 33.0598 42.8832 45.1279 42.8832 58.2474C42.8832 63.3466 42.1053 70.7661 44.27 74.8057C46.3462 78.6791 50.925 80.9564 57.1025 79.8808C68.6207 77.8771 65.8525 63.977 65.8525 52.4508C65.8525 47.145 66.5311 40.1655 64.4174 35.9407C62.5183 32.1478 57.5988 29.9456 52.0167 30.9327H52.0194Z" fill="#3C3B3B"/>
<path fill-rule="evenodd" clip-rule="evenodd" d="M126.842 79.5535C126.49 77.3486 118.744 58.352 117.29 54.8246C116.169 52.1047 117.327 51.0371 118.556 48.6551L126.877 31.2679L119.277 31.3645L109.548 51.6165L109.54 31.276H101.834L101.947 79.5481L109.401 79.5454C110.654 69.6233 107.445 67.9844 111.659 60.9485L112.378 61.9785C113.371 63.8455 117.494 76.2568 119.213 79.5481L126.842 79.5535Z" fill="#3C3B3B"/>
<path fill-rule="evenodd" clip-rule="evenodd" d="M23.57 38.371C31.4697 37.8586 30.6113 39.3768 30.6193 46.6568C30.6274 53.5881 31.0137 54.7871 23.5164 54.417L23.57 38.371ZM15.7992 79.5536L23.3662 79.5509L23.5191 61.5575C29.8924 61.1068 38.3151 61.8632 38.3178 49.7764C38.3178 30.7423 36.3248 31.2358 15.7938 31.2787L15.8019 79.5536H15.7992Z" fill="#3C3B3B"/>
<path fill-rule="evenodd" clip-rule="evenodd" d="M185.224 80.1034C192.021 80.1034 195.707 76.7773 196.554 70.5595C198.577 55.7071 183.805 52.7887 182.093 44.3794C181.364 40.7904 182.166 37.7271 185.674 37.7432C189.403 37.762 189.349 40.8709 189.333 44.3714L196.589 44.4385C196.608 35.262 193.432 29.739 183.571 30.7985C175.913 31.6194 172.686 38.9476 174.647 46.9787C176.517 54.6261 182.724 57.2924 186.238 61.6969C194.88 72.523 181.224 77.8824 181.224 68.0568V64.9265H173.963C173.963 72.5766 174.655 80.1061 185.226 80.1061L185.224 80.1034Z" fill="#3C3B3B"/>
<path fill-rule="evenodd" clip-rule="evenodd" d="M146.705 79.465C147.045 74.7359 146.589 69.6689 146.772 64.9131C146.957 60.1438 154.744 39.6799 156.233 31.2814L148.947 31.2975L143.625 52.2871C141.906 50.4604 137.971 33.0732 137.644 31.276L129.626 31.2733L136.166 53.7919C141.222 70.4897 138.21 63.6282 139.116 79.5106L146.699 79.4623L146.705 79.465Z" fill="#3C3B3B"/>
<path fill-rule="evenodd" clip-rule="evenodd" d="M161.031 38.1858C161.139 38.2502 161.326 38.1617 161.391 38.3092C161.453 38.4567 161.664 38.4031 161.75 38.4299L163.735 39.0764L161.898 45.5034L165.259 45.5382C167.429 37.7432 168.437 43.0463 168.386 31.2814L161.031 31.276L161.026 38.1831L161.031 38.1858Z" fill="#3C3B3B"/>
<path fill-rule="evenodd" clip-rule="evenodd" d="M128.596 95.3232L128.591 93.3624C131.225 93.3624 131.024 92.8232 131.337 94.996L128.596 95.3259V95.3232ZM127.378 96.0931C128.674 96.3935 130.726 96.7583 131.914 95.9026C133.397 94.835 132.252 93.4214 132.099 92.7535C131.689 90.9644 132.26 93.3678 132.134 91.2085C131.979 88.5556 129.1 89.489 127.408 89.8217L127.376 96.0931H127.378Z" fill="#3C3B3B"/>
<path fill-rule="evenodd" clip-rule="evenodd" d="M108.384 8.16732C108.068 4.78216 107.926 5.76927 109.785 3.79772C106.375 1.85836 108.781 4.91628 105.978 0.895386C103.518 4.72583 104.283 2.50213 102.362 3.85674C104.554 5.95704 103.647 5.10672 103.696 8.16464C106.512 7.06486 105.42 6.84759 108.387 8.17L108.384 8.16732Z" fill="#3C3B3B"/>
<path fill-rule="evenodd" clip-rule="evenodd" d="M123.99 8.16196C123.639 4.81703 123.532 5.72636 125.388 3.80309C122.048 1.87446 124.353 4.90823 121.579 0.895386C121.12 1.61695 120.831 2.49677 120.13 2.96618L118.258 3.71457C118.213 3.62337 118.054 3.79236 117.966 3.85673C120.093 5.94363 119.272 4.72314 119.294 8.16464C122.174 7.03804 120.978 6.89051 123.99 8.16196Z" fill="#3C3B3B"/>
<path fill-rule="evenodd" clip-rule="evenodd" d="M139.594 8.1566C139.269 4.72851 139.122 5.79878 140.981 3.79773C137.928 2.03004 140.559 5.54127 137.177 0.898071C135.6 3.37927 134.012 3.99086 133.864 3.71457C133.816 3.62337 133.66 3.79504 133.572 3.85674C135.747 5.98655 134.87 4.66682 134.902 8.16464C137.636 6.79663 136.863 6.96294 139.596 8.1566H139.594Z" fill="#3C3B3B"/>
<path fill-rule="evenodd" clip-rule="evenodd" d="M92.7567 8.0332C92.3758 4.80361 92.6145 5.48762 94.1676 3.79772C90.82 1.83958 93.1886 4.93236 90.3721 0.890015C89.9402 1.58475 89.5969 2.5209 88.937 2.9635L86.7589 3.85405C88.9182 5.93289 88.0679 5.09867 88.0921 8.15927C90.93 6.73224 89.7524 7.07022 92.7594 8.0332H92.7567Z" fill="#3C3B3B"/>
<path fill-rule="evenodd" clip-rule="evenodd" d="M77.1775 8.15658C76.8958 4.69363 76.649 5.86851 78.5535 3.80308C77.3679 3.09761 77.0568 3.63677 76.0562 2.86961C75.4822 2.4297 75.1952 1.49086 74.758 0.887329C73.3282 3.20222 74.0713 2.7033 72.0675 3.4651L71.1501 3.85404C73.2934 5.93557 72.4752 5.09062 72.4779 8.16999C75.2622 6.77516 74.3636 6.96829 77.1748 8.15658H77.1775Z" fill="#3C3B3B"/>
<path fill-rule="evenodd" clip-rule="evenodd" d="M80.6458 95.2401C78.7037 95.1677 77.5369 94.7948 77.6925 92.5899C77.832 90.6237 79.0015 90.5379 80.9596 90.7847C82.0567 92.7643 82.2069 93.0942 80.6458 95.2401ZM76.5203 93.9177C77.3116 97.8071 83.642 96.8469 82.9607 92.268C82.3062 87.8796 75.4419 88.6146 76.5203 93.9177Z" fill="#3C3B3B"/>
<path fill-rule="evenodd" clip-rule="evenodd" d="M91.268 91.686C90.5035 93.3062 90.8656 92.7911 88.4676 92.7992L88.4649 91.2407L88.4676 90.5782C90.8174 90.5782 90.5035 90.0819 91.268 91.686ZM92.3463 96.3748C93.2422 95.1329 92.2176 95.275 91.9949 93.6495C91.8313 92.4424 92.7594 93.1103 92.3678 90.4414C90.8576 89.3255 89.224 89.0573 87.3946 89.8271C87.0862 91.4875 86.7938 95.2401 87.8855 96.3641L88.7734 94.2155C88.7922 94.0465 88.8592 94.0009 88.9236 93.9043C92.8131 93.907 89.8812 95.2187 92.349 96.3748H92.3463Z" fill="#3C3B3B"/>
<path fill-rule="evenodd" clip-rule="evenodd" d="M113.218 91.6859C113.47 91.1146 112.738 89.7519 115.908 90.9965L115.951 92.3699C112.601 93.7352 113.543 92.0936 113.221 91.6859H113.218ZM117.008 96.3264C117.317 95.7229 117.539 96.4418 116.987 94.3978C116.048 90.9268 118.255 93.0942 116.737 89.7385L112.126 89.5105C111.992 90.7739 111.997 91.7637 111.987 93.0271C111.984 93.3704 111.949 94.5695 111.981 94.8297C112.306 97.4262 111.885 95.2696 112.545 96.2969L113.435 93.9552L115.721 93.9257C116.083 95.5673 115.557 95.3393 117.003 96.3264H117.008Z" fill="#3C3B3B"/>
<path fill-rule="evenodd" clip-rule="evenodd" d="M100.182 92.5792C101.094 91.1388 101.912 91.3078 102.185 89.5723C100.278 89.7278 99.4627 91.3346 98.3469 92.4236C98.2744 91.9784 98.1779 90.5996 98.1296 90.436C97.8157 89.4033 98.2583 90.047 97.3946 89.5615C96.7213 90.6747 96.944 91.5384 96.944 93.0272C96.9413 94.7868 96.7482 95.5298 97.51 96.3694C98.6661 95.1892 97.8587 95.098 98.6822 93.4403C100.734 94.4247 99.1301 94.2423 101.719 96.3694C102.754 95.1597 102.322 95.6988 100.184 92.5792H100.182Z" fill="#3C3B3B"/>
<path fill-rule="evenodd" clip-rule="evenodd" d="M137.657 91.2407C139.073 90.0148 139.43 90.6935 140.964 91.0851C141.005 89.4247 139.798 89.1028 138.046 89.4998C136.498 89.8512 136.45 90.7901 136.71 92.5712C137.931 93.3303 137.665 92.9735 138.848 93.4322C140.938 94.2423 139.752 93.4644 140.264 94.9746C137.756 95.7739 137.939 94.4274 136.447 95.2509C137.971 97.3887 141.088 96.5357 141.38 94.6876C141.608 93.2444 140.814 92.9145 139.765 92.5309C137.88 91.8415 138.435 92.8152 137.66 91.238L137.657 91.2407Z" fill="#3C3B3B"/>
<path fill-rule="evenodd" clip-rule="evenodd" d="M80.6458 95.2402C82.2069 93.0916 82.0594 92.7643 80.9596 90.7847C79.0015 90.5379 77.832 90.6238 77.6925 92.59C77.5369 94.7949 78.7037 95.1677 80.6458 95.2402Z" fill="#3C3B3B"/>
<path fill-rule="evenodd" clip-rule="evenodd" d="M71.4425 92.1312C70.1711 93.1612 70.8551 92.7213 69.0874 92.7964V90.5781C70.8309 90.6559 70.1603 90.2186 71.4667 91.2406L71.4425 92.1339V92.1312ZM72.1453 93.5824C72.2928 90.9509 74.3797 89.0116 68.1003 89.5883L68.103 95.6263L69.1008 94.8914C69.4656 93.8291 68.9452 94.9665 69.3074 94.0249L72.148 93.585L72.1453 93.5824Z" fill="#3C3B3B"/>
<path fill-rule="evenodd" clip-rule="evenodd" d="M88.4622 91.2407L88.4649 92.7991C90.8629 92.7911 90.5008 93.3061 91.2653 91.6859C90.5008 90.0819 90.812 90.5781 88.4649 90.5781L88.4622 91.2407Z" fill="#3C3B3B"/>
<path fill-rule="evenodd" clip-rule="evenodd" d="M115.908 90.9966C112.738 89.7519 113.473 91.1173 113.218 91.6859C113.542 92.0937 112.598 93.7353 115.949 92.3699L115.906 90.9966H115.908Z" fill="#3C3B3B"/>
<path fill-rule="evenodd" clip-rule="evenodd" d="M131.337 94.9933C131.026 92.8206 131.225 93.3624 128.591 93.3598L128.596 95.3206L131.337 94.9907V94.9933Z" fill="#3C3B3B"/>
<path fill-rule="evenodd" clip-rule="evenodd" d="M69.0874 92.7965C70.8524 92.7241 70.1684 93.1613 71.4425 92.1313L71.4667 91.238C70.1604 90.2134 70.831 90.6533 69.0874 90.5755V92.7938V92.7965Z" fill="#3C3B3B"/>
</g>
<defs>
<clipPath id="clip0_0_739">
<rect width="211.742" height="100" fill="white" transform="translate(0 0.886963)"/>
</clipPath>
</defs>
</svg>
