<svg width="32" height="32" viewBox="0 0 32 32" fill="none" xmlns="http://www.w3.org/2000/svg">
<g id="vuesax/bold/crown">
<g id="crown">
<path id="Vector" d="M22.6667 29.3334H9.33334C8.78668 29.3334 8.33334 28.88 8.33334 28.3334C8.33334 27.7867 8.78668 27.3334 9.33334 27.3334H22.6667C23.2133 27.3334 23.6667 27.7867 23.6667 28.3334C23.6667 28.88 23.2133 29.3334 22.6667 29.3334Z" fill="#FDBB4F"/>
<path id="Vector_2" d="M27.1333 7.35997L21.8 11.1733C21.0933 11.68 20.08 11.3733 19.7733 10.56L17.2533 3.83997C16.8267 2.67997 15.1867 2.67997 14.76 3.83997L12.2267 10.5466C11.92 11.3733 10.92 11.68 10.2133 11.16L4.87999 7.34664C3.81332 6.59997 2.39999 7.6533 2.83999 8.8933L8.38665 24.4266C8.57332 24.96 9.07999 25.3066 9.63999 25.3066H22.3467C22.9067 25.3066 23.4133 24.9466 23.6 24.4266L29.1467 8.8933C29.6 7.6533 28.1867 6.59997 27.1333 7.35997ZM19.3333 19.6666H12.6667C12.12 19.6666 11.6667 19.2133 11.6667 18.6666C11.6667 18.12 12.12 17.6666 12.6667 17.6666H19.3333C19.88 17.6666 20.3333 18.12 20.3333 18.6666C20.3333 19.2133 19.88 19.6666 19.3333 19.6666Z" fill="#FDBB4F"/>
</g>
</g>
</svg>
