<svg width="124" height="15" viewBox="0 0 124 15" fill="none" xmlns="http://www.w3.org/2000/svg">
<path id="Vector" d="M10.4131 2.94974V0.771195H0.201477V14.7587H2.79931V9.40328H9.55235V7.20477H2.79931V2.94974H10.4131ZM32.0743 14.9583C36.4092 14.9583 39.6083 11.9213 39.6083 7.76605C39.6083 3.60862 36.4114 0.57375 32.0743 0.57375C27.7394 0.57375 24.5404 3.63081 24.5404 7.76605C24.5404 11.9013 27.7372 14.9583 32.0743 14.9583ZM32.0743 12.68C29.2569 12.68 27.1582 10.6212 27.1582 7.76383C27.1582 4.90643 29.2569 2.84769 32.0743 2.84769C34.8918 2.84769 36.9905 4.90643 36.9905 7.76383C36.9905 10.6212 34.8918 12.68 32.0743 12.68ZM61.6688 14.9583C66.0037 14.9583 69.2027 11.9213 69.2027 7.76605C69.2027 3.60862 66.0059 0.57375 61.6688 0.57375C57.3339 0.57375 54.1348 3.63081 54.1348 7.76605C54.1348 11.9013 57.3316 14.9583 61.6688 14.9583ZM61.6688 12.68C58.8513 12.68 56.7526 10.6212 56.7526 7.76383C56.7526 4.90643 58.8513 2.84769 61.6688 2.84769C64.4862 2.84769 66.5849 4.90643 66.5849 7.76383C66.5849 10.6212 64.4862 12.68 61.6688 12.68ZM84.7298 14.7587H90.8439C95.3785 14.7587 98.4777 11.9612 98.4777 7.76605C98.4777 3.56869 95.3807 0.773412 90.8439 0.773412H84.7298V14.7609V14.7587ZM87.3277 12.5602V2.9697H90.7241C93.8411 2.9697 95.8599 4.86872 95.8599 7.76605C95.8599 10.6634 93.8411 12.5624 90.7241 12.5624H87.3277V12.5602ZM118.342 14.9583C122.178 14.9583 123.997 13.0394 123.997 10.7987C123.997 5.66959 115.704 7.60853 115.704 4.63134C115.704 3.56869 116.583 2.73011 118.741 2.73011C119.959 2.73011 121.339 3.0895 122.597 3.82825L123.416 1.80944C122.198 1.01079 120.438 0.571533 118.759 0.571533C114.923 0.571533 113.124 2.49051 113.124 4.75114C113.124 9.94015 121.437 7.96571 121.437 10.9828C121.437 12.0211 120.518 12.802 118.34 12.802C116.62 12.802 114.843 12.1631 113.725 11.2646L112.827 13.2834C113.985 14.2817 116.163 14.9628 118.342 14.9628V14.9583Z" fill="white"/>
</svg>
