<svg width="47" height="50" viewBox="0 0 47 50" fill="none" xmlns="http://www.w3.org/2000/svg">
<path id="Vector" fillRule="evenodd" clipRule="evenodd" d="M0.179984 24.0794C-2.03627 42.2998 16.6832 54.7232 31.6668 48.2741C31.3008 48.1188 26.6331 47.298 24.388 46.5725C18.7331 44.7467 11.3345 40.2698 8.77214 35.753C9.37778 36.0437 10.5092 37.0797 11.1503 37.5744C16.2639 41.5188 25.3042 45.2925 31.5514 46.1244C30.7794 38.342 25.6547 32.1103 21.5084 28.9867C15.4764 24.4388 9.54195 22.8837 0.179984 24.0794ZM38.9212 30.7703C39.498 30.6683 39.1719 30.6505 39.305 30.9301C38.3311 32.8845 33.4083 36.5273 31.0834 37.9848C31.3584 39.2028 32.1682 40.7779 32.603 42.3086C33.0068 43.7373 33.1865 45.8116 33.5814 47.0362C34.1471 47.2802 34.4288 47.0539 35.2208 46.5637C42.5928 41.9825 47.2494 33.4347 46.118 24.1881C39.0521 21.8365 28.4012 25.619 24.683 29.1531C25.2133 30.1847 28.0751 32.4852 30.1627 36.3742C32.3878 35.7619 37.2285 31.7731 38.9212 30.7703ZM26.7351 9.02262C26.8372 7.3632 28.6408 1.85472 28.1527 0.823132C26.0585 1.31342 22.5045 12.9227 27.5471 15.0169C27.5027 16.7185 26.6375 19.0967 26.2382 20.856C25.8766 22.4466 25.0558 24.8093 24.9581 26.3267L28.2836 24.5386L29.821 15.6159C32.6807 15.1057 33.8897 13.1823 34.6884 10.5977C35.2386 8.8163 35.6845 6.07205 35.6667 4.05545C35.6578 2.98171 35.7599 2.67112 35.0056 2.34722C34.2802 3.5807 33.6945 8.60554 33.0267 10.5112L32.0417 10.3116C31.933 9.46409 32.3989 8.01099 32.583 7.10585C32.8981 5.55958 33.6568 2.8486 33.3839 1.71274C32.0528 1.46427 32.1194 2.06326 31.9308 3.19246L30.8903 8.08198C30.6308 9.27109 30.8637 9.66376 29.9253 9.99431C28.9869 9.49737 29.4439 9.06699 29.6569 7.9755C30.0407 6.00327 31.5869 1.22911 30.3313 1.02058C29.3463 0.856409 28.9359 4.40597 28.7961 5.14472C28.5454 6.4625 28.3435 8.70981 27.4517 9.53508L26.7329 9.02484L26.7351 9.02262ZM19.0858 14.6243C19.8068 13.7324 21.0758 13.3087 21.7702 10.8684C23.3741 5.22681 19.2345 -1.2578 14.1941 0.208614C11.2701 1.05829 9.67728 4.95615 10.5026 8.71647C11.3012 12.3592 13.1558 14.3159 16.8097 14.9859L18.478 24.7605C19.605 25.2175 20.712 26.0938 21.9565 26.3378L19.0836 14.6265L19.0858 14.6243Z" fill="white"/>
</svg>
